<mxfile host="app.diagrams.net" agent="Mozilla/5.0 (Macintosh; Intel Mac OS X 10.15; rv:136.0) Gecko/20100101 Firefox/136.0" version="26.1.3" pages="11">
  <diagram name="Presente-1" id="-eSPHKiGun9NPFyS05Qf">
    <mxGraphModel dx="1434" dy="684" grid="1" gridSize="10" guides="1" tooltips="1" connect="1" arrows="1" fold="1" page="1" pageScale="1" pageWidth="850" pageHeight="1100" math="0" shadow="0">
      <root>
        <mxCell id="0" />
        <mxCell id="1" parent="0" />
        <mxCell id="uTgeHCMOefYsaHz2KUSM-1" value="" style="endArrow=none;html=1;rounded=0;strokeWidth=2;strokeColor=#D9D9D9;" parent="1" edge="1">
          <mxGeometry width="50" height="50" relative="1" as="geometry">
            <mxPoint x="240" y="280" as="sourcePoint" />
            <mxPoint x="640" y="280" as="targetPoint" />
          </mxGeometry>
        </mxCell>
        <mxCell id="uTgeHCMOefYsaHz2KUSM-2" value="" style="endArrow=none;html=1;rounded=0;strokeWidth=2;strokeColor=#D9D9D9;" parent="1" edge="1">
          <mxGeometry width="50" height="50" relative="1" as="geometry">
            <mxPoint x="440" y="280" as="sourcePoint" />
            <mxPoint x="440" y="240" as="targetPoint" />
          </mxGeometry>
        </mxCell>
        <mxCell id="uTgeHCMOefYsaHz2KUSM-5" value="" style="group;fontColor=light-dark(#000000,#EDEDED);fontSize=12;" parent="1" vertex="1" connectable="0">
          <mxGeometry x="280" y="270" width="20" height="20" as="geometry" />
        </mxCell>
        <mxCell id="uTgeHCMOefYsaHz2KUSM-3" value="" style="endArrow=none;html=1;rounded=0;strokeWidth=2;fontSize=12;" parent="uTgeHCMOefYsaHz2KUSM-5" edge="1">
          <mxGeometry width="50" height="50" relative="1" as="geometry">
            <mxPoint y="20" as="sourcePoint" />
            <mxPoint x="20" as="targetPoint" />
          </mxGeometry>
        </mxCell>
        <mxCell id="uTgeHCMOefYsaHz2KUSM-4" value="" style="endArrow=none;html=1;rounded=0;strokeWidth=2;fontSize=12;" parent="uTgeHCMOefYsaHz2KUSM-5" edge="1">
          <mxGeometry width="50" height="50" relative="1" as="geometry">
            <mxPoint as="sourcePoint" />
            <mxPoint x="20" y="20" as="targetPoint" />
          </mxGeometry>
        </mxCell>
        <mxCell id="uTgeHCMOefYsaHz2KUSM-6" value="" style="group" parent="1" vertex="1" connectable="0">
          <mxGeometry x="330" y="270" width="20" height="20" as="geometry" />
        </mxCell>
        <mxCell id="uTgeHCMOefYsaHz2KUSM-7" value="" style="endArrow=none;html=1;rounded=0;strokeWidth=2;" parent="uTgeHCMOefYsaHz2KUSM-6" edge="1">
          <mxGeometry width="50" height="50" relative="1" as="geometry">
            <mxPoint y="20" as="sourcePoint" />
            <mxPoint x="20" as="targetPoint" />
          </mxGeometry>
        </mxCell>
        <mxCell id="uTgeHCMOefYsaHz2KUSM-8" value="" style="endArrow=none;html=1;rounded=0;strokeWidth=2;" parent="uTgeHCMOefYsaHz2KUSM-6" edge="1">
          <mxGeometry width="50" height="50" relative="1" as="geometry">
            <mxPoint as="sourcePoint" />
            <mxPoint x="20" y="20" as="targetPoint" />
          </mxGeometry>
        </mxCell>
        <mxCell id="uTgeHCMOefYsaHz2KUSM-9" value="" style="group" parent="1" vertex="1" connectable="0">
          <mxGeometry x="380" y="270" width="20" height="20" as="geometry" />
        </mxCell>
        <mxCell id="uTgeHCMOefYsaHz2KUSM-10" value="" style="endArrow=none;html=1;rounded=0;strokeWidth=2;" parent="uTgeHCMOefYsaHz2KUSM-9" edge="1">
          <mxGeometry width="50" height="50" relative="1" as="geometry">
            <mxPoint y="20" as="sourcePoint" />
            <mxPoint x="20" as="targetPoint" />
          </mxGeometry>
        </mxCell>
        <mxCell id="uTgeHCMOefYsaHz2KUSM-11" value="" style="endArrow=none;html=1;rounded=0;strokeWidth=2;" parent="uTgeHCMOefYsaHz2KUSM-9" edge="1">
          <mxGeometry width="50" height="50" relative="1" as="geometry">
            <mxPoint as="sourcePoint" />
            <mxPoint x="20" y="20" as="targetPoint" />
          </mxGeometry>
        </mxCell>
        <mxCell id="uTgeHCMOefYsaHz2KUSM-12" value="" style="group" parent="1" vertex="1" connectable="0">
          <mxGeometry x="430" y="270" width="20" height="20" as="geometry" />
        </mxCell>
        <mxCell id="uTgeHCMOefYsaHz2KUSM-13" value="" style="endArrow=none;html=1;rounded=0;strokeWidth=2;" parent="uTgeHCMOefYsaHz2KUSM-12" edge="1">
          <mxGeometry width="50" height="50" relative="1" as="geometry">
            <mxPoint y="20" as="sourcePoint" />
            <mxPoint x="20" as="targetPoint" />
          </mxGeometry>
        </mxCell>
        <mxCell id="uTgeHCMOefYsaHz2KUSM-14" value="" style="endArrow=none;html=1;rounded=0;strokeWidth=2;" parent="uTgeHCMOefYsaHz2KUSM-12" edge="1">
          <mxGeometry width="50" height="50" relative="1" as="geometry">
            <mxPoint as="sourcePoint" />
            <mxPoint x="20" y="20" as="targetPoint" />
          </mxGeometry>
        </mxCell>
        <mxCell id="uTgeHCMOefYsaHz2KUSM-15" value="" style="group" parent="1" vertex="1" connectable="0">
          <mxGeometry x="478" y="270" width="20" height="20" as="geometry" />
        </mxCell>
        <mxCell id="uTgeHCMOefYsaHz2KUSM-16" value="" style="endArrow=none;html=1;rounded=0;strokeWidth=2;" parent="uTgeHCMOefYsaHz2KUSM-15" edge="1">
          <mxGeometry width="50" height="50" relative="1" as="geometry">
            <mxPoint y="20" as="sourcePoint" />
            <mxPoint x="20" as="targetPoint" />
          </mxGeometry>
        </mxCell>
        <mxCell id="uTgeHCMOefYsaHz2KUSM-17" value="" style="endArrow=none;html=1;rounded=0;strokeWidth=2;" parent="uTgeHCMOefYsaHz2KUSM-15" edge="1">
          <mxGeometry width="50" height="50" relative="1" as="geometry">
            <mxPoint as="sourcePoint" />
            <mxPoint x="20" y="20" as="targetPoint" />
          </mxGeometry>
        </mxCell>
        <mxCell id="uTgeHCMOefYsaHz2KUSM-18" value="" style="group" parent="1" vertex="1" connectable="0">
          <mxGeometry x="528" y="270" width="20" height="20" as="geometry" />
        </mxCell>
        <mxCell id="uTgeHCMOefYsaHz2KUSM-19" value="" style="endArrow=none;html=1;rounded=0;strokeWidth=2;" parent="uTgeHCMOefYsaHz2KUSM-18" edge="1">
          <mxGeometry width="50" height="50" relative="1" as="geometry">
            <mxPoint y="20" as="sourcePoint" />
            <mxPoint x="20" as="targetPoint" />
          </mxGeometry>
        </mxCell>
        <mxCell id="uTgeHCMOefYsaHz2KUSM-20" value="" style="endArrow=none;html=1;rounded=0;strokeWidth=2;" parent="uTgeHCMOefYsaHz2KUSM-18" edge="1">
          <mxGeometry width="50" height="50" relative="1" as="geometry">
            <mxPoint as="sourcePoint" />
            <mxPoint x="20" y="20" as="targetPoint" />
          </mxGeometry>
        </mxCell>
        <mxCell id="uTgeHCMOefYsaHz2KUSM-21" value="" style="group" parent="1" vertex="1" connectable="0">
          <mxGeometry x="578" y="270" width="20" height="20" as="geometry" />
        </mxCell>
        <mxCell id="uTgeHCMOefYsaHz2KUSM-22" value="" style="endArrow=none;html=1;rounded=0;strokeWidth=2;" parent="uTgeHCMOefYsaHz2KUSM-21" edge="1">
          <mxGeometry width="50" height="50" relative="1" as="geometry">
            <mxPoint y="20" as="sourcePoint" />
            <mxPoint x="20" as="targetPoint" />
          </mxGeometry>
        </mxCell>
        <mxCell id="uTgeHCMOefYsaHz2KUSM-23" value="" style="endArrow=none;html=1;rounded=0;strokeWidth=2;" parent="uTgeHCMOefYsaHz2KUSM-21" edge="1">
          <mxGeometry width="50" height="50" relative="1" as="geometry">
            <mxPoint as="sourcePoint" />
            <mxPoint x="20" y="20" as="targetPoint" />
          </mxGeometry>
        </mxCell>
      </root>
    </mxGraphModel>
  </diagram>
  <diagram id="cIK1LOAEQBtt4uXyMKV2" name="Presente-2">
    <mxGraphModel dx="1434" dy="684" grid="1" gridSize="10" guides="1" tooltips="1" connect="1" arrows="1" fold="1" page="1" pageScale="1" pageWidth="850" pageHeight="1100" math="0" shadow="0">
      <root>
        <mxCell id="0" />
        <mxCell id="1" parent="0" />
        <mxCell id="nvtlJ5qnzuxB19t84R04-1" value="" style="endArrow=none;html=1;rounded=0;strokeWidth=2;strokeColor=#D9D9D9;" edge="1" parent="1">
          <mxGeometry width="50" height="50" relative="1" as="geometry">
            <mxPoint x="240" y="280" as="sourcePoint" />
            <mxPoint x="640" y="280" as="targetPoint" />
          </mxGeometry>
        </mxCell>
        <mxCell id="nvtlJ5qnzuxB19t84R04-2" value="" style="endArrow=none;html=1;rounded=0;strokeWidth=2;strokeColor=#D9D9D9;" edge="1" parent="1">
          <mxGeometry width="50" height="50" relative="1" as="geometry">
            <mxPoint x="440" y="280" as="sourcePoint" />
            <mxPoint x="440" y="240" as="targetPoint" />
          </mxGeometry>
        </mxCell>
        <mxCell id="nvtlJ5qnzuxB19t84R04-18" value="" style="group" vertex="1" connectable="0" parent="1">
          <mxGeometry x="528" y="270" width="20" height="20" as="geometry" />
        </mxCell>
        <mxCell id="nvtlJ5qnzuxB19t84R04-19" value="" style="endArrow=none;html=1;rounded=0;strokeWidth=2;" edge="1" parent="nvtlJ5qnzuxB19t84R04-18">
          <mxGeometry width="50" height="50" relative="1" as="geometry">
            <mxPoint y="20" as="sourcePoint" />
            <mxPoint x="20" as="targetPoint" />
          </mxGeometry>
        </mxCell>
        <mxCell id="nvtlJ5qnzuxB19t84R04-20" value="" style="endArrow=none;html=1;rounded=0;strokeWidth=2;" edge="1" parent="nvtlJ5qnzuxB19t84R04-18">
          <mxGeometry width="50" height="50" relative="1" as="geometry">
            <mxPoint as="sourcePoint" />
            <mxPoint x="20" y="20" as="targetPoint" />
          </mxGeometry>
        </mxCell>
      </root>
    </mxGraphModel>
  </diagram>
  <diagram id="0v3wKKB_7qpL71plINNl" name="Presente-3">
    <mxGraphModel dx="1434" dy="684" grid="1" gridSize="10" guides="1" tooltips="1" connect="1" arrows="1" fold="1" page="1" pageScale="1" pageWidth="850" pageHeight="1100" math="0" shadow="0">
      <root>
        <mxCell id="0" />
        <mxCell id="1" parent="0" />
        <mxCell id="WxfRPew6AOHW3ambFcQa-1" value="" style="endArrow=none;html=1;rounded=0;strokeWidth=2;strokeColor=#D9D9D9;" edge="1" parent="1">
          <mxGeometry width="50" height="50" relative="1" as="geometry">
            <mxPoint x="240" y="280" as="sourcePoint" />
            <mxPoint x="640" y="280" as="targetPoint" />
          </mxGeometry>
        </mxCell>
        <mxCell id="WxfRPew6AOHW3ambFcQa-2" value="" style="endArrow=none;html=1;rounded=0;strokeWidth=2;strokeColor=#D9D9D9;" edge="1" parent="1">
          <mxGeometry width="50" height="50" relative="1" as="geometry">
            <mxPoint x="440" y="280" as="sourcePoint" />
            <mxPoint x="440" y="240" as="targetPoint" />
          </mxGeometry>
        </mxCell>
        <mxCell id="WxfRPew6AOHW3ambFcQa-6" value="" style="endArrow=none;html=1;rounded=1;curved=0;" edge="1" parent="1">
          <mxGeometry width="50" height="50" relative="1" as="geometry">
            <mxPoint x="280" y="260" as="sourcePoint" />
            <mxPoint x="600" y="260" as="targetPoint" />
          </mxGeometry>
        </mxCell>
      </root>
    </mxGraphModel>
  </diagram>
  <diagram name="preterito-perfeito-indicativo-1" id="Skb0Hz6ZKAejCdOt69iU">
    <mxGraphModel dx="1434" dy="684" grid="1" gridSize="10" guides="1" tooltips="1" connect="1" arrows="1" fold="1" page="1" pageScale="1" pageWidth="850" pageHeight="1100" math="0" shadow="0">
      <root>
        <mxCell id="u-iNiK6Vi2YjFVfrdRz9-0" />
        <mxCell id="u-iNiK6Vi2YjFVfrdRz9-1" parent="u-iNiK6Vi2YjFVfrdRz9-0" />
        <mxCell id="xbX-BtffhUg2ln7Ax5dL-0" value="" style="endArrow=none;html=1;rounded=0;strokeWidth=2;strokeColor=#D9D9D9;" edge="1" parent="u-iNiK6Vi2YjFVfrdRz9-1">
          <mxGeometry width="50" height="50" relative="1" as="geometry">
            <mxPoint x="240" y="280" as="sourcePoint" />
            <mxPoint x="640" y="280" as="targetPoint" />
          </mxGeometry>
        </mxCell>
        <mxCell id="xbX-BtffhUg2ln7Ax5dL-1" value="" style="endArrow=none;html=1;rounded=0;strokeWidth=2;strokeColor=#D9D9D9;" edge="1" parent="u-iNiK6Vi2YjFVfrdRz9-1">
          <mxGeometry width="50" height="50" relative="1" as="geometry">
            <mxPoint x="440" y="280" as="sourcePoint" />
            <mxPoint x="440" y="240" as="targetPoint" />
          </mxGeometry>
        </mxCell>
        <mxCell id="xbX-BtffhUg2ln7Ax5dL-5" value="" style="group" vertex="1" connectable="0" parent="u-iNiK6Vi2YjFVfrdRz9-1">
          <mxGeometry x="330" y="270" width="20" height="20" as="geometry" />
        </mxCell>
        <mxCell id="xbX-BtffhUg2ln7Ax5dL-6" value="" style="endArrow=none;html=1;rounded=0;strokeWidth=2;" edge="1" parent="xbX-BtffhUg2ln7Ax5dL-5">
          <mxGeometry width="50" height="50" relative="1" as="geometry">
            <mxPoint y="20" as="sourcePoint" />
            <mxPoint x="20" as="targetPoint" />
          </mxGeometry>
        </mxCell>
        <mxCell id="xbX-BtffhUg2ln7Ax5dL-7" value="" style="endArrow=none;html=1;rounded=0;strokeWidth=2;" edge="1" parent="xbX-BtffhUg2ln7Ax5dL-5">
          <mxGeometry width="50" height="50" relative="1" as="geometry">
            <mxPoint as="sourcePoint" />
            <mxPoint x="20" y="20" as="targetPoint" />
          </mxGeometry>
        </mxCell>
      </root>
    </mxGraphModel>
  </diagram>
  <diagram name="preterito-imperfeito-indicativo-1" id="bdNU0HvpABlHx5-5R3Ur">
    <mxGraphModel dx="1434" dy="684" grid="1" gridSize="10" guides="1" tooltips="1" connect="1" arrows="1" fold="1" page="1" pageScale="1" pageWidth="850" pageHeight="1100" math="0" shadow="0">
      <root>
        <mxCell id="mLQye_aN1n23HWmQSXYz-0" />
        <mxCell id="mLQye_aN1n23HWmQSXYz-1" parent="mLQye_aN1n23HWmQSXYz-0" />
        <mxCell id="mLQye_aN1n23HWmQSXYz-2" value="" style="endArrow=none;html=1;rounded=0;strokeWidth=2;strokeColor=#D9D9D9;" edge="1" parent="mLQye_aN1n23HWmQSXYz-1">
          <mxGeometry width="50" height="50" relative="1" as="geometry">
            <mxPoint x="240" y="280" as="sourcePoint" />
            <mxPoint x="640" y="280" as="targetPoint" />
          </mxGeometry>
        </mxCell>
        <mxCell id="mLQye_aN1n23HWmQSXYz-3" value="" style="endArrow=none;html=1;rounded=0;strokeWidth=2;strokeColor=#D9D9D9;" edge="1" parent="mLQye_aN1n23HWmQSXYz-1">
          <mxGeometry width="50" height="50" relative="1" as="geometry">
            <mxPoint x="440" y="280" as="sourcePoint" />
            <mxPoint x="440" y="240" as="targetPoint" />
          </mxGeometry>
        </mxCell>
        <mxCell id="mLQye_aN1n23HWmQSXYz-4" value="" style="group" vertex="1" connectable="0" parent="mLQye_aN1n23HWmQSXYz-1">
          <mxGeometry x="290" y="270" width="20" height="20" as="geometry" />
        </mxCell>
        <mxCell id="mLQye_aN1n23HWmQSXYz-5" value="" style="endArrow=none;html=1;rounded=0;strokeWidth=2;" edge="1" parent="mLQye_aN1n23HWmQSXYz-4">
          <mxGeometry width="50" height="50" relative="1" as="geometry">
            <mxPoint y="20" as="sourcePoint" />
            <mxPoint x="20" as="targetPoint" />
          </mxGeometry>
        </mxCell>
        <mxCell id="mLQye_aN1n23HWmQSXYz-6" value="" style="endArrow=none;html=1;rounded=0;strokeWidth=2;" edge="1" parent="mLQye_aN1n23HWmQSXYz-4">
          <mxGeometry width="50" height="50" relative="1" as="geometry">
            <mxPoint as="sourcePoint" />
            <mxPoint x="20" y="20" as="targetPoint" />
          </mxGeometry>
        </mxCell>
        <mxCell id="zbDLco2pMV7txkKNi-26-0" value="" style="group" vertex="1" connectable="0" parent="mLQye_aN1n23HWmQSXYz-1">
          <mxGeometry x="370" y="270" width="20" height="20" as="geometry" />
        </mxCell>
        <mxCell id="zbDLco2pMV7txkKNi-26-1" value="" style="endArrow=none;html=1;rounded=0;strokeWidth=2;" edge="1" parent="zbDLco2pMV7txkKNi-26-0">
          <mxGeometry width="50" height="50" relative="1" as="geometry">
            <mxPoint y="20" as="sourcePoint" />
            <mxPoint x="20" as="targetPoint" />
          </mxGeometry>
        </mxCell>
        <mxCell id="zbDLco2pMV7txkKNi-26-2" value="" style="endArrow=none;html=1;rounded=0;strokeWidth=2;" edge="1" parent="zbDLco2pMV7txkKNi-26-0">
          <mxGeometry width="50" height="50" relative="1" as="geometry">
            <mxPoint as="sourcePoint" />
            <mxPoint x="20" y="20" as="targetPoint" />
          </mxGeometry>
        </mxCell>
        <mxCell id="zbDLco2pMV7txkKNi-26-3" value="" style="curved=1;endArrow=classic;html=1;rounded=0;" edge="1" parent="mLQye_aN1n23HWmQSXYz-1">
          <mxGeometry width="50" height="50" relative="1" as="geometry">
            <mxPoint x="300" y="270" as="sourcePoint" />
            <mxPoint x="380" y="270" as="targetPoint" />
            <Array as="points">
              <mxPoint x="310" y="240" />
              <mxPoint x="370" y="240" />
            </Array>
          </mxGeometry>
        </mxCell>
      </root>
    </mxGraphModel>
  </diagram>
  <diagram name="preterito-imperfeito-indicativo-2" id="Odz0vFwar23TI4uqn8Ed">
    <mxGraphModel dx="1434" dy="684" grid="1" gridSize="10" guides="1" tooltips="1" connect="1" arrows="1" fold="1" page="1" pageScale="1" pageWidth="850" pageHeight="1100" math="0" shadow="0">
      <root>
        <mxCell id="auZ969W8F0EmZQ7MLxG_-0" />
        <mxCell id="auZ969W8F0EmZQ7MLxG_-1" parent="auZ969W8F0EmZQ7MLxG_-0" />
        <mxCell id="auZ969W8F0EmZQ7MLxG_-2" value="" style="endArrow=none;html=1;rounded=0;strokeWidth=2;strokeColor=#D9D9D9;" edge="1" parent="auZ969W8F0EmZQ7MLxG_-1">
          <mxGeometry width="50" height="50" relative="1" as="geometry">
            <mxPoint x="240" y="280" as="sourcePoint" />
            <mxPoint x="640" y="280" as="targetPoint" />
          </mxGeometry>
        </mxCell>
        <mxCell id="auZ969W8F0EmZQ7MLxG_-3" value="" style="endArrow=none;html=1;rounded=0;strokeWidth=2;strokeColor=#D9D9D9;" edge="1" parent="auZ969W8F0EmZQ7MLxG_-1">
          <mxGeometry width="50" height="50" relative="1" as="geometry">
            <mxPoint x="440" y="280" as="sourcePoint" />
            <mxPoint x="440" y="240" as="targetPoint" />
          </mxGeometry>
        </mxCell>
        <mxCell id="auZ969W8F0EmZQ7MLxG_-4" value="" style="group" vertex="1" connectable="0" parent="auZ969W8F0EmZQ7MLxG_-1">
          <mxGeometry x="330" y="270" width="20" height="20" as="geometry" />
        </mxCell>
        <mxCell id="auZ969W8F0EmZQ7MLxG_-5" value="" style="endArrow=none;html=1;rounded=0;strokeWidth=2;" edge="1" parent="auZ969W8F0EmZQ7MLxG_-4">
          <mxGeometry width="50" height="50" relative="1" as="geometry">
            <mxPoint y="20" as="sourcePoint" />
            <mxPoint x="20" as="targetPoint" />
          </mxGeometry>
        </mxCell>
        <mxCell id="auZ969W8F0EmZQ7MLxG_-6" value="" style="endArrow=none;html=1;rounded=0;strokeWidth=2;" edge="1" parent="auZ969W8F0EmZQ7MLxG_-4">
          <mxGeometry width="50" height="50" relative="1" as="geometry">
            <mxPoint as="sourcePoint" />
            <mxPoint x="20" y="20" as="targetPoint" />
          </mxGeometry>
        </mxCell>
        <mxCell id="auZ969W8F0EmZQ7MLxG_-7" value="" style="group" vertex="1" connectable="0" parent="auZ969W8F0EmZQ7MLxG_-1">
          <mxGeometry x="370" y="270" width="20" height="20" as="geometry" />
        </mxCell>
        <mxCell id="auZ969W8F0EmZQ7MLxG_-8" value="" style="endArrow=none;html=1;rounded=0;strokeWidth=2;" edge="1" parent="auZ969W8F0EmZQ7MLxG_-7">
          <mxGeometry width="50" height="50" relative="1" as="geometry">
            <mxPoint y="20" as="sourcePoint" />
            <mxPoint x="20" as="targetPoint" />
          </mxGeometry>
        </mxCell>
        <mxCell id="auZ969W8F0EmZQ7MLxG_-9" value="" style="endArrow=none;html=1;rounded=0;strokeWidth=2;" edge="1" parent="auZ969W8F0EmZQ7MLxG_-7">
          <mxGeometry width="50" height="50" relative="1" as="geometry">
            <mxPoint as="sourcePoint" />
            <mxPoint x="20" y="20" as="targetPoint" />
          </mxGeometry>
        </mxCell>
        <mxCell id="auZ969W8F0EmZQ7MLxG_-10" value="" style="group" vertex="1" connectable="0" parent="auZ969W8F0EmZQ7MLxG_-1">
          <mxGeometry x="290" y="270" width="20" height="20" as="geometry" />
        </mxCell>
        <mxCell id="auZ969W8F0EmZQ7MLxG_-11" value="" style="endArrow=none;html=1;rounded=0;strokeWidth=2;" edge="1" parent="auZ969W8F0EmZQ7MLxG_-10">
          <mxGeometry width="50" height="50" relative="1" as="geometry">
            <mxPoint y="20" as="sourcePoint" />
            <mxPoint x="20" as="targetPoint" />
          </mxGeometry>
        </mxCell>
        <mxCell id="auZ969W8F0EmZQ7MLxG_-12" value="" style="endArrow=none;html=1;rounded=0;strokeWidth=2;" edge="1" parent="auZ969W8F0EmZQ7MLxG_-10">
          <mxGeometry width="50" height="50" relative="1" as="geometry">
            <mxPoint as="sourcePoint" />
            <mxPoint x="20" y="20" as="targetPoint" />
          </mxGeometry>
        </mxCell>
      </root>
    </mxGraphModel>
  </diagram>
  <diagram name="preterito-perfeito-composto-indicativo-1" id="HBUgeP1x2tqmOKuCF-p3">
    <mxGraphModel dx="1434" dy="684" grid="1" gridSize="10" guides="1" tooltips="1" connect="1" arrows="1" fold="1" page="1" pageScale="1" pageWidth="850" pageHeight="1100" math="0" shadow="0">
      <root>
        <mxCell id="trBxMmfL3ZTeB2CfBneT-0" />
        <mxCell id="trBxMmfL3ZTeB2CfBneT-1" parent="trBxMmfL3ZTeB2CfBneT-0" />
        <mxCell id="trBxMmfL3ZTeB2CfBneT-2" value="" style="endArrow=none;html=1;rounded=0;strokeWidth=2;strokeColor=#D9D9D9;" edge="1" parent="trBxMmfL3ZTeB2CfBneT-1">
          <mxGeometry width="50" height="50" relative="1" as="geometry">
            <mxPoint x="240" y="280" as="sourcePoint" />
            <mxPoint x="640" y="280" as="targetPoint" />
          </mxGeometry>
        </mxCell>
        <mxCell id="trBxMmfL3ZTeB2CfBneT-3" value="" style="endArrow=none;html=1;rounded=0;strokeWidth=2;strokeColor=#D9D9D9;" edge="1" parent="trBxMmfL3ZTeB2CfBneT-1">
          <mxGeometry width="50" height="50" relative="1" as="geometry">
            <mxPoint x="440" y="280" as="sourcePoint" />
            <mxPoint x="440" y="240" as="targetPoint" />
          </mxGeometry>
        </mxCell>
        <mxCell id="trBxMmfL3ZTeB2CfBneT-4" value="" style="group" vertex="1" connectable="0" parent="trBxMmfL3ZTeB2CfBneT-1">
          <mxGeometry x="330" y="270" width="20" height="20" as="geometry" />
        </mxCell>
        <mxCell id="trBxMmfL3ZTeB2CfBneT-5" value="" style="endArrow=none;html=1;rounded=0;strokeWidth=2;" edge="1" parent="trBxMmfL3ZTeB2CfBneT-4">
          <mxGeometry width="50" height="50" relative="1" as="geometry">
            <mxPoint y="20" as="sourcePoint" />
            <mxPoint x="20" as="targetPoint" />
          </mxGeometry>
        </mxCell>
        <mxCell id="trBxMmfL3ZTeB2CfBneT-6" value="" style="endArrow=none;html=1;rounded=0;strokeWidth=2;" edge="1" parent="trBxMmfL3ZTeB2CfBneT-4">
          <mxGeometry width="50" height="50" relative="1" as="geometry">
            <mxPoint as="sourcePoint" />
            <mxPoint x="20" y="20" as="targetPoint" />
          </mxGeometry>
        </mxCell>
        <mxCell id="B0joLem6y0mjELkfO_HH-0" value="" style="curved=1;endArrow=classic;html=1;rounded=0;" edge="1" parent="trBxMmfL3ZTeB2CfBneT-1">
          <mxGeometry width="50" height="50" relative="1" as="geometry">
            <mxPoint x="340" y="270" as="sourcePoint" />
            <mxPoint x="440" y="250" as="targetPoint" />
            <Array as="points">
              <mxPoint x="350" y="250" />
              <mxPoint x="370" y="250" />
              <mxPoint x="410" y="250" />
            </Array>
          </mxGeometry>
        </mxCell>
      </root>
    </mxGraphModel>
  </diagram>
  <diagram name="futuro-do-indicativo-1" id="aUfS5hqfMp9w5xUX3C86">
    <mxGraphModel dx="1434" dy="684" grid="1" gridSize="10" guides="1" tooltips="1" connect="1" arrows="1" fold="1" page="1" pageScale="1" pageWidth="850" pageHeight="1100" math="0" shadow="0">
      <root>
        <mxCell id="ZxVTO8gApNRlQ7jmx0C7-0" />
        <mxCell id="ZxVTO8gApNRlQ7jmx0C7-1" parent="ZxVTO8gApNRlQ7jmx0C7-0" />
        <mxCell id="ZxVTO8gApNRlQ7jmx0C7-2" value="" style="endArrow=none;html=1;rounded=0;strokeWidth=2;strokeColor=#D9D9D9;" edge="1" parent="ZxVTO8gApNRlQ7jmx0C7-1">
          <mxGeometry width="50" height="50" relative="1" as="geometry">
            <mxPoint x="240" y="280" as="sourcePoint" />
            <mxPoint x="640" y="280" as="targetPoint" />
          </mxGeometry>
        </mxCell>
        <mxCell id="ZxVTO8gApNRlQ7jmx0C7-3" value="" style="endArrow=none;html=1;rounded=0;strokeWidth=2;strokeColor=#D9D9D9;" edge="1" parent="ZxVTO8gApNRlQ7jmx0C7-1">
          <mxGeometry width="50" height="50" relative="1" as="geometry">
            <mxPoint x="440" y="280" as="sourcePoint" />
            <mxPoint x="440" y="240" as="targetPoint" />
          </mxGeometry>
        </mxCell>
        <mxCell id="ZxVTO8gApNRlQ7jmx0C7-4" value="" style="group" vertex="1" connectable="0" parent="ZxVTO8gApNRlQ7jmx0C7-1">
          <mxGeometry x="530" y="270" width="20" height="20" as="geometry" />
        </mxCell>
        <mxCell id="ZxVTO8gApNRlQ7jmx0C7-5" value="" style="endArrow=none;html=1;rounded=0;strokeWidth=2;" edge="1" parent="ZxVTO8gApNRlQ7jmx0C7-4">
          <mxGeometry width="50" height="50" relative="1" as="geometry">
            <mxPoint y="20" as="sourcePoint" />
            <mxPoint x="20" as="targetPoint" />
          </mxGeometry>
        </mxCell>
        <mxCell id="ZxVTO8gApNRlQ7jmx0C7-6" value="" style="endArrow=none;html=1;rounded=0;strokeWidth=2;" edge="1" parent="ZxVTO8gApNRlQ7jmx0C7-4">
          <mxGeometry width="50" height="50" relative="1" as="geometry">
            <mxPoint as="sourcePoint" />
            <mxPoint x="20" y="20" as="targetPoint" />
          </mxGeometry>
        </mxCell>
      </root>
    </mxGraphModel>
  </diagram>
  <diagram name="imperfeito-conjuntivo-1" id="lWT0aTMwlAjenD9a940-">
    <mxGraphModel dx="1434" dy="684" grid="1" gridSize="10" guides="1" tooltips="1" connect="1" arrows="1" fold="1" page="1" pageScale="1" pageWidth="850" pageHeight="1100" math="0" shadow="0">
      <root>
        <mxCell id="qBC6_kLp7J-gWuCw_NnD-0" />
        <mxCell id="qBC6_kLp7J-gWuCw_NnD-1" parent="qBC6_kLp7J-gWuCw_NnD-0" />
        <mxCell id="qBC6_kLp7J-gWuCw_NnD-2" value="" style="endArrow=none;html=1;rounded=0;strokeWidth=2;strokeColor=#D9D9D9;" edge="1" parent="qBC6_kLp7J-gWuCw_NnD-1">
          <mxGeometry width="50" height="50" relative="1" as="geometry">
            <mxPoint x="240" y="280" as="sourcePoint" />
            <mxPoint x="640" y="280" as="targetPoint" />
          </mxGeometry>
        </mxCell>
        <mxCell id="qBC6_kLp7J-gWuCw_NnD-3" value="" style="endArrow=none;html=1;rounded=0;strokeWidth=2;strokeColor=#D9D9D9;" edge="1" parent="qBC6_kLp7J-gWuCw_NnD-1">
          <mxGeometry width="50" height="50" relative="1" as="geometry">
            <mxPoint x="440" y="280" as="sourcePoint" />
            <mxPoint x="440" y="240" as="targetPoint" />
          </mxGeometry>
        </mxCell>
        <mxCell id="z8v_Bq-Oula6v34OHv03-6" value="" style="endArrow=none;html=1;rounded=0;" edge="1" parent="qBC6_kLp7J-gWuCw_NnD-1">
          <mxGeometry width="50" height="50" relative="1" as="geometry">
            <mxPoint x="310" y="265" as="sourcePoint" />
            <mxPoint x="370" y="265" as="targetPoint" />
          </mxGeometry>
        </mxCell>
        <mxCell id="z8v_Bq-Oula6v34OHv03-7" value="&lt;font style=&quot;font-size: 30px;&quot;&gt;?&lt;/font&gt;" style="text;html=1;align=center;verticalAlign=middle;whiteSpace=wrap;rounded=0;" vertex="1" parent="qBC6_kLp7J-gWuCw_NnD-1">
          <mxGeometry x="270" y="250" width="60" height="30" as="geometry" />
        </mxCell>
        <mxCell id="z8v_Bq-Oula6v34OHv03-8" value="&lt;font style=&quot;font-size: 30px;&quot;&gt;?&lt;/font&gt;" style="text;html=1;align=center;verticalAlign=middle;whiteSpace=wrap;rounded=0;" vertex="1" parent="qBC6_kLp7J-gWuCw_NnD-1">
          <mxGeometry x="350" y="250" width="60" height="30" as="geometry" />
        </mxCell>
      </root>
    </mxGraphModel>
  </diagram>
  <diagram name="presente-conjuntivo-1" id="dKMY-3YNiQYC0IS1BX4W">
    <mxGraphModel dx="1434" dy="684" grid="1" gridSize="10" guides="1" tooltips="1" connect="1" arrows="1" fold="1" page="1" pageScale="1" pageWidth="850" pageHeight="1100" math="0" shadow="0">
      <root>
        <mxCell id="NvQV01KT0FfmveiqnKCI-0" />
        <mxCell id="NvQV01KT0FfmveiqnKCI-1" parent="NvQV01KT0FfmveiqnKCI-0" />
        <mxCell id="NvQV01KT0FfmveiqnKCI-2" value="" style="endArrow=none;html=1;rounded=0;strokeWidth=2;strokeColor=#D9D9D9;" edge="1" parent="NvQV01KT0FfmveiqnKCI-1">
          <mxGeometry width="50" height="50" relative="1" as="geometry">
            <mxPoint x="240" y="280" as="sourcePoint" />
            <mxPoint x="640" y="280" as="targetPoint" />
          </mxGeometry>
        </mxCell>
        <mxCell id="NvQV01KT0FfmveiqnKCI-3" value="" style="endArrow=none;html=1;rounded=0;strokeWidth=2;strokeColor=#D9D9D9;" edge="1" parent="NvQV01KT0FfmveiqnKCI-1" source="NvQV01KT0FfmveiqnKCI-6">
          <mxGeometry width="50" height="50" relative="1" as="geometry">
            <mxPoint x="440" y="280" as="sourcePoint" />
            <mxPoint x="440" y="240" as="targetPoint" />
          </mxGeometry>
        </mxCell>
        <mxCell id="BVATzrzSkiKBFyKU3Llo-0" value="" style="endArrow=none;html=1;rounded=0;strokeWidth=2;strokeColor=#D9D9D9;" edge="1" parent="NvQV01KT0FfmveiqnKCI-1" target="NvQV01KT0FfmveiqnKCI-6">
          <mxGeometry width="50" height="50" relative="1" as="geometry">
            <mxPoint x="440" y="280" as="sourcePoint" />
            <mxPoint x="440" y="240" as="targetPoint" />
          </mxGeometry>
        </mxCell>
        <mxCell id="NvQV01KT0FfmveiqnKCI-6" value="&lt;font style=&quot;font-size: 30px;&quot;&gt;?&lt;/font&gt;" style="text;html=1;align=center;verticalAlign=middle;whiteSpace=wrap;rounded=0;" vertex="1" parent="NvQV01KT0FfmveiqnKCI-1">
          <mxGeometry x="410" y="250" width="60" height="30" as="geometry" />
        </mxCell>
      </root>
    </mxGraphModel>
  </diagram>
  <diagram name="futuro-conjuntivo-1" id="r7Co9NgaNa9hxeC-QjgA">
    <mxGraphModel dx="1434" dy="684" grid="1" gridSize="10" guides="1" tooltips="1" connect="1" arrows="1" fold="1" page="1" pageScale="1" pageWidth="850" pageHeight="1100" math="0" shadow="0">
      <root>
        <mxCell id="63mgMKMHhvjjDoWF1fz7-0" />
        <mxCell id="63mgMKMHhvjjDoWF1fz7-1" parent="63mgMKMHhvjjDoWF1fz7-0" />
        <mxCell id="63mgMKMHhvjjDoWF1fz7-2" value="" style="endArrow=none;html=1;rounded=0;strokeWidth=2;strokeColor=#D9D9D9;" edge="1" parent="63mgMKMHhvjjDoWF1fz7-1">
          <mxGeometry width="50" height="50" relative="1" as="geometry">
            <mxPoint x="240" y="280" as="sourcePoint" />
            <mxPoint x="640" y="280" as="targetPoint" />
          </mxGeometry>
        </mxCell>
        <mxCell id="63mgMKMHhvjjDoWF1fz7-3" value="" style="endArrow=none;html=1;rounded=0;strokeWidth=2;strokeColor=#D9D9D9;" edge="1" parent="63mgMKMHhvjjDoWF1fz7-1">
          <mxGeometry width="50" height="50" relative="1" as="geometry">
            <mxPoint x="440" y="280" as="sourcePoint" />
            <mxPoint x="440" y="240" as="targetPoint" />
          </mxGeometry>
        </mxCell>
        <mxCell id="voL1ZyUi_Rt2cpDLCFo1-0" value="" style="endArrow=none;html=1;rounded=0;" edge="1" parent="63mgMKMHhvjjDoWF1fz7-1">
          <mxGeometry width="50" height="50" relative="1" as="geometry">
            <mxPoint x="510" y="265" as="sourcePoint" />
            <mxPoint x="570" y="265" as="targetPoint" />
          </mxGeometry>
        </mxCell>
        <mxCell id="voL1ZyUi_Rt2cpDLCFo1-1" value="&lt;font style=&quot;font-size: 30px;&quot;&gt;?&lt;/font&gt;" style="text;html=1;align=center;verticalAlign=middle;whiteSpace=wrap;rounded=0;" vertex="1" parent="63mgMKMHhvjjDoWF1fz7-1">
          <mxGeometry x="470" y="250" width="60" height="30" as="geometry" />
        </mxCell>
        <mxCell id="voL1ZyUi_Rt2cpDLCFo1-2" value="&lt;font style=&quot;font-size: 30px;&quot;&gt;?&lt;/font&gt;" style="text;html=1;align=center;verticalAlign=middle;whiteSpace=wrap;rounded=0;" vertex="1" parent="63mgMKMHhvjjDoWF1fz7-1">
          <mxGeometry x="550" y="250" width="60" height="30" as="geometry" />
        </mxCell>
      </root>
    </mxGraphModel>
  </diagram>
</mxfile>
